<mxfile host="app.diagrams.net" modified="2021-09-14T15:11:17.859Z" agent="5.0 (Windows NT 10.0; Win64; x64) AppleWebKit/537.36 (KHTML, like Gecko) Chrome/93.0.4577.63 Safari/537.36" etag="M7d8jE98OHoamvcCVbPB" version="15.2.5" type="github">
  <diagram id="gkEW19blILz0vDNTHMra" name="Page-1">
    <mxGraphModel dx="1007" dy="965" grid="1" gridSize="10" guides="1" tooltips="1" connect="1" arrows="1" fold="1" page="1" pageScale="1" pageWidth="827" pageHeight="1169" math="0" shadow="0">
      <root>
        <mxCell id="0" />
        <mxCell id="1" parent="0" />
        <mxCell id="owmENbEgpoEc4uLZBzLl-7" value="" style="group;fontColor=#095C86;" vertex="1" connectable="0" parent="1">
          <mxGeometry x="78" y="470" width="290" height="100" as="geometry" />
        </mxCell>
        <mxCell id="owmENbEgpoEc4uLZBzLl-1" value="" style="rounded=0;whiteSpace=wrap;html=1;strokeColor=#AF45ED;strokeWidth=1.5;fillColor=#F694C1;fontColor=#095C86;" vertex="1" parent="owmENbEgpoEc4uLZBzLl-7">
          <mxGeometry width="190" height="70" as="geometry" />
        </mxCell>
        <mxCell id="owmENbEgpoEc4uLZBzLl-2" value="高速占比" style="rounded=1;whiteSpace=wrap;html=1;fillColor=#F694C1;fontColor=#095C86;strokeColor=#AF45ED;glass=0;" vertex="1" parent="owmENbEgpoEc4uLZBzLl-7">
          <mxGeometry x="10" y="10" width="70" height="20" as="geometry" />
        </mxCell>
        <mxCell id="owmENbEgpoEc4uLZBzLl-4" value="省道占比" style="rounded=1;whiteSpace=wrap;html=1;fillColor=#F694C1;fontColor=#095C86;strokeColor=#AF45ED;shadow=0;sketch=0;glass=0;" vertex="1" parent="owmENbEgpoEc4uLZBzLl-7">
          <mxGeometry x="10" y="40" width="70" height="20" as="geometry" />
        </mxCell>
        <mxCell id="owmENbEgpoEc4uLZBzLl-5" value="夜间里程占比" style="rounded=1;whiteSpace=wrap;html=1;fillColor=#F694C1;fontColor=#095C86;strokeColor=#AF45ED;glass=0;" vertex="1" parent="owmENbEgpoEc4uLZBzLl-7">
          <mxGeometry x="90" y="10" width="90" height="20" as="geometry" />
        </mxCell>
        <mxCell id="owmENbEgpoEc4uLZBzLl-6" value="..." style="rounded=1;whiteSpace=wrap;html=1;fillColor=#F694C1;fontColor=#095C86;strokeColor=#AF45ED;glass=0;" vertex="1" parent="owmENbEgpoEc4uLZBzLl-7">
          <mxGeometry x="90" y="40" width="90" height="20" as="geometry" />
        </mxCell>
        <mxCell id="owmENbEgpoEc4uLZBzLl-41" value="" style="html=1;shadow=0;dashed=0;align=center;verticalAlign=middle;shape=mxgraph.arrows2.arrow;dy=0.6;dx=13;notch=0;rounded=0;sketch=0;fontColor=#095C86;strokeColor=#AF45ED;fillColor=#F694C1;" vertex="1" parent="owmENbEgpoEc4uLZBzLl-7">
          <mxGeometry x="196" y="27" width="37" height="20" as="geometry" />
        </mxCell>
        <mxCell id="owmENbEgpoEc4uLZBzLl-8" value="" style="rounded=0;whiteSpace=wrap;html=1;shadow=0;glass=0;sketch=0;fontColor=#095C86;strokeColor=#AF45ED;strokeWidth=1.5;fillColor=none;" vertex="1" parent="1">
          <mxGeometry x="322" y="470" width="170" height="70" as="geometry" />
        </mxCell>
        <mxCell id="owmENbEgpoEc4uLZBzLl-10" value="XGBoost" style="rounded=1;whiteSpace=wrap;html=1;fillColor=#F694C1;fontColor=#095C86;strokeColor=#AF45ED;glass=0;" vertex="1" parent="1">
          <mxGeometry x="332" y="480" width="70" height="20" as="geometry" />
        </mxCell>
        <mxCell id="owmENbEgpoEc4uLZBzLl-11" value="LightGBM" style="rounded=1;whiteSpace=wrap;html=1;fillColor=#F694C1;fontColor=#095C86;strokeColor=#AF45ED;glass=0;" vertex="1" parent="1">
          <mxGeometry x="332" y="510" width="70" height="20" as="geometry" />
        </mxCell>
        <mxCell id="owmENbEgpoEc4uLZBzLl-15" value="DL models" style="rounded=1;whiteSpace=wrap;html=1;fillColor=#F694C1;fontColor=#095C86;strokeColor=#AF45ED;glass=0;" vertex="1" parent="1">
          <mxGeometry x="412" y="480" width="70" height="20" as="geometry" />
        </mxCell>
        <mxCell id="owmENbEgpoEc4uLZBzLl-16" value="..." style="rounded=1;whiteSpace=wrap;html=1;fillColor=#F694C1;fontColor=#095C86;strokeColor=#AF45ED;glass=0;" vertex="1" parent="1">
          <mxGeometry x="412" y="510" width="70" height="20" as="geometry" />
        </mxCell>
        <mxCell id="owmENbEgpoEc4uLZBzLl-40" value="" style="group;fontColor=#095C86;" vertex="1" connectable="0" parent="1">
          <mxGeometry x="660.0037744514841" y="427.5187744514841" width="154.96245109703182" height="154.96245109703193" as="geometry" />
        </mxCell>
        <mxCell id="owmENbEgpoEc4uLZBzLl-45" value="" style="group;fontColor=#095C86;" vertex="1" connectable="0" parent="owmENbEgpoEc4uLZBzLl-40">
          <mxGeometry x="-7.105427357601002e-14" width="154.96245109703187" height="154.96245109703193" as="geometry" />
        </mxCell>
        <mxCell id="owmENbEgpoEc4uLZBzLl-38" value="" style="verticalLabelPosition=bottom;verticalAlign=top;html=1;shape=mxgraph.basic.flash;rounded=1;shadow=0;glass=0;sketch=0;fontColor=#095C86;strokeColor=#AF45ED;strokeWidth=1.5;fillColor=none;rotation=45;" vertex="1" parent="owmENbEgpoEc4uLZBzLl-45">
          <mxGeometry x="25.146225548515943" y="20.241225548515956" width="104.67" height="114.48" as="geometry" />
        </mxCell>
        <mxCell id="owmENbEgpoEc4uLZBzLl-39" value="&lt;font&gt;因果洞见&lt;/font&gt;" style="text;html=1;strokeColor=none;fillColor=none;align=center;verticalAlign=middle;whiteSpace=wrap;rounded=0;shadow=0;glass=0;sketch=0;fontColor=#095C86;" vertex="1" parent="owmENbEgpoEc4uLZBzLl-45">
          <mxGeometry x="37.96622554851599" y="67.48122554851591" width="50" height="20" as="geometry" />
        </mxCell>
        <mxCell id="owmENbEgpoEc4uLZBzLl-43" value="" style="html=1;shadow=0;dashed=0;align=center;verticalAlign=middle;shape=mxgraph.arrows2.arrow;dy=0.6;dx=13;notch=0;rounded=0;sketch=0;fontColor=#095C86;strokeColor=#AF45ED;fillColor=#F694C1;" vertex="1" parent="1">
          <mxGeometry x="500" y="495" width="27" height="20" as="geometry" />
        </mxCell>
        <mxCell id="owmENbEgpoEc4uLZBzLl-44" value="" style="group;fontColor=#095C86;" vertex="1" connectable="0" parent="1">
          <mxGeometry x="538" y="470" width="70" height="70" as="geometry" />
        </mxCell>
        <mxCell id="owmENbEgpoEc4uLZBzLl-17" value="" style="rounded=0;whiteSpace=wrap;html=1;shadow=0;glass=0;sketch=0;fontColor=#095C86;strokeColor=#AF45ED;strokeWidth=1.5;fillColor=none;" vertex="1" parent="owmENbEgpoEc4uLZBzLl-44">
          <mxGeometry width="70" height="70" as="geometry" />
        </mxCell>
        <mxCell id="owmENbEgpoEc4uLZBzLl-33" value="shap" style="rounded=1;whiteSpace=wrap;html=1;fillColor=#F694C1;fontColor=#095C86;strokeColor=#AF45ED;glass=0;" vertex="1" parent="owmENbEgpoEc4uLZBzLl-44">
          <mxGeometry x="10" y="10" width="46" height="20" as="geometry" />
        </mxCell>
        <mxCell id="owmENbEgpoEc4uLZBzLl-34" value="lime" style="rounded=1;whiteSpace=wrap;html=1;fillColor=#F694C1;fontColor=#095C86;strokeColor=#AF45ED;glass=0;" vertex="1" parent="owmENbEgpoEc4uLZBzLl-44">
          <mxGeometry x="10" y="40" width="46" height="20" as="geometry" />
        </mxCell>
        <mxCell id="owmENbEgpoEc4uLZBzLl-46" value="" style="html=1;shadow=0;dashed=0;align=center;verticalAlign=middle;shape=mxgraph.arrows2.arrow;dy=0.6;dx=13;notch=0;rounded=0;sketch=0;fontColor=#095C86;strokeColor=#AF45ED;fillColor=#F694C1;" vertex="1" parent="1">
          <mxGeometry x="620.28" y="495" width="27" height="20" as="geometry" />
        </mxCell>
        <mxCell id="owmENbEgpoEc4uLZBzLl-47" value="&lt;b&gt;&lt;font style=&quot;font-size: 18px&quot;&gt;？&lt;/font&gt;&lt;/b&gt;&lt;font size=&quot;1&quot;&gt;&lt;br&gt;&lt;/font&gt;" style="text;html=1;strokeColor=none;fillColor=none;align=center;verticalAlign=middle;whiteSpace=wrap;rounded=0;sketch=0;fontColor=#095C86;" vertex="1" parent="1">
          <mxGeometry x="608" y="480" width="40" height="20" as="geometry" />
        </mxCell>
      </root>
    </mxGraphModel>
  </diagram>
</mxfile>
